<?xml version="1.0" encoding="UTF-8" standalone="no"?>
<!-- Created with Inkscape (http://www.inkscape.org/) -->

<svg
  
  
   viewBox="0 0 259.76917 402.27795"
   version="1.1"
   id="svg1"
   xml:space="preserve"
   xmlns="http://www.w3.org/2000/svg"
   xmlns:svg="http://www.w3.org/2000/svg"><defs
     id="defs1"><style
       type="text/css"
       id="style1">
   <![CDATA[
    .fil0 {fill:black}
    .fil1 {fill:white}
   ]]>
  </style><style
       type="text/css"
       id="style1-2">
   <![CDATA[
    .fil0 {fill:black}
    .fil1 {fill:white}
   ]]>
  </style><style
       type="text/css"
       id="style1-5">
   <![CDATA[
    .fil0 {fill:black}
    .fil1 {fill:white}
   ]]>
  </style><style
       type="text/css"
       id="style1-4">
   <![CDATA[
    .fil0 {fill:black}
    .fil1 {fill:white}
   ]]>
  </style><style
       type="text/css"
       id="style1-9">
   <![CDATA[
    .fil0 {fill:black}
    .fil1 {fill:white}
   ]]>
  </style><style
       type="text/css"
       id="style1-1">
   <![CDATA[
    .fil0 {fill:black}
    .fil1 {fill:white}
   ]]>
  </style><style
       type="text/css"
       id="style1-6">
   <![CDATA[
    .fil0 {fill:#FEFEFE}
    .fil4 {fill:#0072BC}
    .fil2 {fill:#4EAB44}
    .fil3 {fill:#EE1C24}
    .fil1 {fill:#FEDE00}
   ]]>
  </style><style
       type="text/css"
       id="style1-3">
   <![CDATA[
    .fil1 {fill:black}
    .fil0 {fill:white}
   ]]>
  </style><font
       id="FontID0"
       horiz-adv-x="666"
       font-variant="normal"
       style="fill-rule:nonzero"
       font-style="normal"
       font-weight="400"
       horiz-origin-x="0"
       horiz-origin-y="0"
       vert-origin-x="512"
       vert-origin-y="768"
       vert-adv-y="1024">
	<font-face
   font-family="Arial"
   id="font-face1">
		<font-face-src>
			<font-face-name
   name="Arial" />
		</font-face-src>
	</font-face>
   <missing-glyph
   id="missing-glyph1"><path
     d="M0 0z"
     id="path1-43" /></missing-glyph>
   <glyph
   unicode="®"
   horiz-adv-x="736"
   d="M369.826 727.989c61.8479,0 122.183,-15.8245 181.162,-47.6626 58.8532,-31.649 104.845,-77.168 137.692,-136.147 32.8153,-59.1684 49.3333,-120.859 49.3333,-184.85 0,-63.4871 -16.1712,-124.673 -48.6713,-183.148 -32.3425,-58.6956 -77.6724,-104.183 -136.179,-136.526 -58.5064,-32.5001 -119.661,-48.6713 -183.337,-48.6713 -63.8338,0 -124.988,16.1712 -183.495,48.6713 -58.5064,32.3425 -103.994,77.83 -136.494,136.526 -32.5001,58.4749 -48.8289,119.661 -48.8289,183.148 0,63.9914 16.4865,125.682 49.4909,184.85 33.1621,58.9793 79.1539,104.498 138.007,136.147 58.9793,31.8381 119.314,47.6626 181.32,47.6626zm0 -60.9968c-51.8236,0 -102.323,-13.3342 -151.341,-39.8134 -48.9865,-26.5107 -87.3183,-64.5273 -114.995,-113.861 -27.6456,-49.3333 -41.4841,-100.653 -41.4841,-153.989 0,-53.1476 13.6494,-103.994 40.8221,-152.665 27.1727,-48.6713 65.1578,-86.6564 114.018,-113.829 48.8289,-27.1727 99.8329,-40.8221 152.98,-40.8221 53.0215,0 103.994,13.6494 152.854,40.8221 48.8289,27.1727 86.814,65.1578 113.829,113.829 26.9836,48.6713 40.4754,99.5177 40.4754,152.665 0,53.3367 -13.807,104.656 -41.3265,153.989 -27.4879,49.3333 -65.8198,87.3499 -114.995,113.861 -49.1757,26.4792 -99.4862,39.8134 -150.837,39.8134zm-161.838 -510.986l0 395.99 136.336 0c46.6854,0 80.3518,-3.65665 101.188,-11.0015 20.9942,-7.31331 37.4807,-19.9855 49.9953,-38.3318 12.3254,-18.1572 18.5039,-37.5122 18.5039,-58.0021 0,-28.8434 -10.3395,-54.1563 -31.1761,-75.4973 -20.679,-21.4986 -48.1669,-33.5088 -82.4954,-36.1567 13.9962,-5.83173 25.3129,-12.8298 33.6664,-20.9942 15.9821,-15.5093 35.4948,-41.6732 58.6641,-78.5235l48.3246 -77.4832 -77.6724 0 -35.3371 62.3207c-27.6456,49.1757 -50.1529,80.005 -67.1437,92.3305 -11.6635,9.01554 -28.6858,13.5233 -51.1616,13.3342l-37.6698 0 0 -167.985 -64.0229 0zm64.0229 222.993l77.6408 0c37.197,0 62.5099,5.48498 76.0016,16.4865 13.5233,11.0015 20.3323,25.6911 20.3323,43.6907 0,11.6635 -3.3099,22.1606 -9.80361,31.3337 -6.52523,9.33077 -15.5093,16.1712 -27.0151,20.6475 -11.6635,4.50777 -33.0044,6.84046 -64.3382,6.84046l-72.8178 0 0 -118.999z"
   id="glyph1" />
  </font><style
       type="text/css"
       id="style1-14">
   <![CDATA[
    @font-face { font-family:"Arial";font-variant:normal;font-style:normal;font-weight:normal;src:url("#FontID0") format(svg)}
    .fil3 {fill:#FEFEFE}
    .fil2 {fill:black}
    .fil0 {fill:black}
    .fil5 {fill:#58585A}
    .fil4 {fill:#F8DA27}
    .fil1 {fill:#FEFEFE;fill-rule:nonzero}
    .fnt0 {font-weight:normal;font-size:44.95px;font-family:'Arial'}
   ]]>
  </style></defs><g
     id="g2-91"
     transform="translate(-178.00993,-709.97284)"><rect
       style="fill:#ffffff;fill-rule:evenodd;stroke-width:17.4543;stroke-linecap:round;stroke-linejoin:round;paint-order:stroke markers fill"
       id="rect2-43"
       width="259.76917"
       height="402.27795"
       x="178.00993"
       y="709.97284" /><g
       id="g19-4-3-6"
       transform="translate(-3164.4989,-975.6218)"><g
         id="g3-7-8-7-4-1-15-2-7"
         transform="translate(4092.6063,989.11089)"
         style="opacity:1"><g
           id="g1-6-3-1-9-6-2-8-6"
           transform="translate(-661.37616,1164.1957)"><g
             id="Layer1000-3-5-0-9-8-3-7-9"
             transform="matrix(0.35277721,0,0,0.35277721,-107.33119,-476.63058)"
             style="opacity:1"><path
               d="m 259.6897,1018.0795 c 150.8774,0 346.4299,-190.2032 436.7802,-424.8318 21.5878,-56.0597 35.1962,-109.571 41.3788,-158.5701 V 321.1281 c -14.171,-93.3259 -66.6755,-152.7122 -150.9721,-152.7122 -150.8774,0 -346.4299,190.2032 -436.7802,424.8318 -90.3504,234.6286 -41.2828,424.8318 109.5933,424.8318 z m 478.159,33.1735 V 563.1774 c -4.4937,13.7596 -9.3185,27.2761 -14.3958,40.4613 C 679.552,717.6468 608.6694,829.046 520.9385,914.377 c -67.217,65.3782 -163.6211,132.6176 -261.2488,132.6176 -34.9373,0 -68.4104,-8.8428 -97.3728,-28.7337 -25.9841,-17.8459 -44.9103,-42.0215 -58.3059,-69.3041 v 102.2962 c 0,34.7466 28.3407,63.0873 63.0874,63.0873 h 507.6629 c 34.7467,0 63.0874,-28.3407 63.0874,-63.0873 z m 0,-822.7582 V 139.627 c 0,-34.7466 -28.3407,-63.0873 -63.0874,-63.0873 H 167.0984 c -34.7467,0 -63.0874,28.3407 -63.0874,63.0873 v 498.5994 c 5.7659,-18.9289 12.2022,-37.4516 19.1024,-55.3697 43.9009,-114.0081 114.7835,-225.4073 202.5144,-310.7383 67.217,-65.3782 163.6211,-132.6175 261.2488,-132.6175 34.9373,0 68.4104,8.8427 97.3728,28.7336 23.0742,15.8481 40.5875,36.6867 53.5993,60.2603 z"
               style="fill:#ffe002;fill-opacity:1;fill-rule:evenodd"
               id="path3-1-2-3-5-7-6-81-76" /></g></g></g><g
         id="g30-8-43-09"
         transform="matrix(1.2601153,0,0,1.2601153,3824.5045,-891.34081)"><path
           style="opacity:1;fill:#ffffff;fill-opacity:1;stroke-width:39.0001;stroke-linecap:square;paint-order:markers stroke fill"
           d="m -315.93801,2201.6286 1.21875,-13.4063 0.84375,-13.7813 3.65626,-8.8125 5.53125,-7.0312 6.03865,-3.0523 3.14887,-4.8228 10.26088,-2.2576 7.6454,-3.1799 10.70762,-0.9396 9.33765,3.4095 7.00963,5.0276 3.08291,10.6707 9.01163,12.047 1.88961,12.1489 -1.94524,9.2923 -25.9774,2.5424 -5.2414,-26.2612 -7.50001,-5.25 -7.50001,3.1875 -2.62501,4.5 -3.65901,6.8882 -0.69063,7.4977 0.87363,10.6353 -0.85494,6.0368 z"
           id="path30-82-5-07" /><path
           style="opacity:1;fill:#ffffff;fill-opacity:1;stroke-width:39.0001;stroke-linecap:square;paint-order:markers stroke fill"
           d="m -290.82023,2200.681 -25.11778,0.9476 5.90626,34.6875 15.18752,12.9376 12.93752,4.2187 c 0,0 11.34377,1.0313 12.00002,0.8438 0.65625,-0.1875 12.42433,-3.8772 12.42433,-3.8772 l 8.19524,-7.8673 8.27967,-13.7289 3.94237,-15.8174 0.72943,-18.1553 -4.06529,0.04 -23.69324,2.0309 -4.03126,26.7188 -3.1875,5.1563 -5.93763,-0.951 -5.52609,2.4162 -3.06755,-6.1528 z"
           id="path29-77-5-66" /><path
           style="fill:#000000"
           d="m -286.23278,2257.9349 c -14.9815,-1.8555 -25.39115,-10.6349 -30.72447,-25.9129 -3.86127,-11.0612 -5.17,-27.2197 -3.4304,-42.3547 1.31181,-11.4132 4.57047,-20.4848 9.96451,-27.7398 1.7625,-2.3705 8.78997,-9.5325 11.02463,-11.2356 7.19803,-5.4859 16.00679,-7.9192 26.20717,-7.2394 6.48753,0.4323 12.37232,2.2348 17.50719,5.3623 6.61867,4.0314 12.03803,11.1063 15.22134,19.8713 1.76655,4.864 3.0316,10.5711 3.7388,16.8669 0.53897,4.7981 0.53985,19.6725 0.001,24.6857 -1.31772,12.2701 -4.83652,22.4217 -10.23239,29.5201 -3.26159,4.2907 -9.22048,10.0334 -12.84351,12.3776 -4.1179,2.6644 -8.77266,4.4737 -13.98859,5.4373 -1.79396,0.3315 -10.6183,0.5876 -12.44574,0.3612 z m 16.45717,-9.7346 c 9.53982,-1.4835 17.04852,-6.6199 22.04445,-15.0796 3.47833,-5.8899 5.48196,-12.6913 6.89239,-23.3962 0.49474,-3.755 0.61207,-17.0561 0.18957,-21.4899 -0.63441,-6.6576 -1.44779,-10.9772 -3.00751,-15.9718 -4.21151,-13.4865 -12.99965,-21.9187 -25.09032,-24.0743 -5.02442,-0.8957 -12.72287,-0.7005 -17.16384,0.4353 -6.03213,1.5428 -11.70278,5.1512 -15.52296,9.8777 -4.50325,5.5717 -7.19044,11.8356 -9.06644,21.1341 -1.21921,6.0431 -1.81274,18.3902 -1.2517,26.039 0.78839,10.7483 2.78194,18.9862 6.18227,25.547 2.50463,4.8326 6.25408,9.2863 10.02623,11.9095 3.62413,2.5203 8.57066,4.4741 13.01356,5.1401 3.03599,0.4551 9.60659,0.4186 12.7543,-0.071 z m -8.32409,-16.2741 c -3.31671,-0.5041 -5.64807,-1.8438 -7.79204,-4.4774 -3.07679,-3.7795 -4.98248,-10.1255 -5.69324,-18.9586 -0.27252,-3.3867 -0.26592,-17.7693 0.01,-21.0082 0.58425,-6.8674 1.74995,-11.7578 3.72065,-15.609 1.87984,-3.6737 4.12687,-5.8113 7.38193,-7.0226 1.56818,-0.5836 1.99265,-0.6529 4.1143,-0.6712 2.08878,-0.018 2.56299,0.047 4.05099,0.5581 4.60054,1.5797 7.48548,4.9356 9.49436,11.0442 1.35179,4.1106 1.93209,8.2941 2.30494,16.617 0.25378,5.6648 0.0221,14.0163 -0.52912,19.0745 -1.1128,10.2114 -4.48538,16.9667 -9.66402,19.3573 -2.16135,0.9977 -5.14074,1.439 -7.39838,1.0959 z m 4.64326,-4.4257 c 1.15477,-0.5823 2.52675,-5.2065 3.31459,-11.1715 0.40911,-3.0975 0.45142,-4.3173 0.4539,-13.0845 0.002,-8.7862 -0.0387,-9.9878 -0.45117,-13.1658 -0.5501,-4.2383 -1.02288,-6.2592 -2.1221,-9.0706 -1.74546,-4.4643 -3.99121,-6.6537 -7.49155,-7.3034 -1.27046,-0.2358 -3.58894,-0.1108 -4.22135,0.2277 -0.76864,0.4113 -2.35944,5.4661 -2.84789,9.0492 -0.70159,5.1465 -0.74779,6.0868 -0.74291,15.12 0.004,7.4063 0.0756,9.866 0.35838,12.3026 0.88713,7.6454 2.53249,12.4444 5.16402,15.0619 1.42092,1.4134 2.59529,2.0583 4.2465,2.3319 1.36643,0.2265 3.60478,0.073 4.33958,-0.2975 z"
           id="path28-1-26-8" /></g><g
         id="g30-3-2-89-7"
         transform="matrix(0.5867898,0,0,0.5867898,3558.4956,457.00973)"><path
           style="opacity:1;fill:#ffffff;fill-opacity:1;stroke-width:39.0001;stroke-linecap:square;paint-order:markers stroke fill"
           d="m -315.93801,2201.6286 1.21875,-13.4063 0.84375,-13.7813 3.65626,-8.8125 5.53125,-7.0312 6.03865,-3.0523 3.14887,-4.8228 10.26088,-2.2576 7.6454,-3.1799 10.70762,-0.9396 9.33765,3.4095 7.00963,5.0276 3.08291,10.6707 9.01163,12.047 1.88961,12.1489 -1.94524,9.2923 -25.9774,2.5424 -5.2414,-26.2612 -7.50001,-5.25 -7.50001,3.1875 -2.62501,4.5 -3.65901,6.8882 -0.69063,7.4977 0.87363,10.6353 -0.85494,6.0368 z"
           id="path30-8-6-2-7" /><path
           style="opacity:1;fill:#ffffff;fill-opacity:1;stroke-width:39.0001;stroke-linecap:square;paint-order:markers stroke fill"
           d="m -290.82023,2200.681 -25.11778,0.9476 5.90626,34.6875 15.18752,12.9376 12.93752,4.2187 c 0,0 11.34377,1.0313 12.00002,0.8438 0.65625,-0.1875 12.42433,-3.8772 12.42433,-3.8772 l 8.19524,-7.8673 8.27967,-13.7289 3.94237,-15.8174 0.72943,-18.1553 -4.06529,0.04 -23.69324,2.0309 -4.03126,26.7188 -3.1875,5.1563 -5.93763,-0.951 -5.52609,2.4162 -3.06755,-6.1528 z"
           id="path29-7-04-9-66" /><path
           style="fill:#000000"
           d="m -286.23278,2257.9349 c -14.9815,-1.8555 -25.39115,-10.6349 -30.72447,-25.9129 -3.86127,-11.0612 -5.17,-27.2197 -3.4304,-42.3547 1.31181,-11.4132 4.57047,-20.4848 9.96451,-27.7398 1.7625,-2.3705 8.78997,-9.5325 11.02463,-11.2356 7.19803,-5.4859 16.00679,-7.9192 26.20717,-7.2394 6.48753,0.4323 12.37232,2.2348 17.50719,5.3623 6.61867,4.0314 12.03803,11.1063 15.22134,19.8713 1.76655,4.864 3.0316,10.5711 3.7388,16.8669 0.53897,4.7981 0.53985,19.6725 0.001,24.6857 -1.31772,12.2701 -4.83652,22.4217 -10.23239,29.5201 -3.26159,4.2907 -9.22048,10.0334 -12.84351,12.3776 -4.1179,2.6644 -8.77266,4.4737 -13.98859,5.4373 -1.79396,0.3315 -10.6183,0.5876 -12.44574,0.3612 z m 16.45717,-9.7346 c 9.53982,-1.4835 17.04852,-6.6199 22.04445,-15.0796 3.47833,-5.8899 5.48196,-12.6913 6.89239,-23.3962 0.49474,-3.755 0.61207,-17.0561 0.18957,-21.4899 -0.63441,-6.6576 -1.44779,-10.9772 -3.00751,-15.9718 -4.21151,-13.4865 -12.99965,-21.9187 -25.09032,-24.0743 -5.02442,-0.8957 -12.72287,-0.7005 -17.16384,0.4353 -6.03213,1.5428 -11.70278,5.1512 -15.52296,9.8777 -4.50325,5.5717 -7.19044,11.8356 -9.06644,21.1341 -1.21921,6.0431 -1.81274,18.3902 -1.2517,26.039 0.78839,10.7483 2.78194,18.9862 6.18227,25.547 2.50463,4.8326 6.25408,9.2863 10.02623,11.9095 3.62413,2.5203 8.57066,4.4741 13.01356,5.1401 3.03599,0.4551 9.60659,0.4186 12.7543,-0.071 z m -8.32409,-16.2741 c -3.31671,-0.5041 -5.64807,-1.8438 -7.79204,-4.4774 -3.07679,-3.7795 -4.98248,-10.1255 -5.69324,-18.9586 -0.27252,-3.3867 -0.26592,-17.7693 0.01,-21.0082 0.58425,-6.8674 1.74995,-11.7578 3.72065,-15.609 1.87984,-3.6737 4.12687,-5.8113 7.38193,-7.0226 1.56818,-0.5836 1.99265,-0.6529 4.1143,-0.6712 2.08878,-0.018 2.56299,0.047 4.05099,0.5581 4.60054,1.5797 7.48548,4.9356 9.49436,11.0442 1.35179,4.1106 1.93209,8.2941 2.30494,16.617 0.25378,5.6648 0.0221,14.0163 -0.52912,19.0745 -1.1128,10.2114 -4.48538,16.9667 -9.66402,19.3573 -2.16135,0.9977 -5.14074,1.439 -7.39838,1.0959 z m 4.64326,-4.4257 c 1.15477,-0.5823 2.52675,-5.2065 3.31459,-11.1715 0.40911,-3.0975 0.45142,-4.3173 0.4539,-13.0845 0.002,-8.7862 -0.0387,-9.9878 -0.45117,-13.1658 -0.5501,-4.2383 -1.02288,-6.2592 -2.1221,-9.0706 -1.74546,-4.4643 -3.99121,-6.6537 -7.49155,-7.3034 -1.27046,-0.2358 -3.58894,-0.1108 -4.22135,0.2277 -0.76864,0.4113 -2.35944,5.4661 -2.84789,9.0492 -0.70159,5.1465 -0.74779,6.0868 -0.74291,15.12 0.004,7.4063 0.0756,9.866 0.35838,12.3026 0.88713,7.6454 2.53249,12.4444 5.16402,15.0619 1.42092,1.4134 2.59529,2.0583 4.2465,2.3319 1.36643,0.2265 3.60478,0.073 4.33958,-0.2975 z"
           id="path28-4-9-5-5" /></g><g
         id="g30-3-3-46-9-3"
         transform="matrix(-0.5867898,0,0,-0.5867898,3382.7359,3315.2001)"><path
           style="opacity:1;fill:#ffffff;fill-opacity:1;stroke-width:39.0001;stroke-linecap:square;paint-order:markers stroke fill"
           d="m -315.93801,2201.6286 1.21875,-13.4063 0.84375,-13.7813 3.65626,-8.8125 5.53125,-7.0312 6.03865,-3.0523 3.14887,-4.8228 10.26088,-2.2576 7.6454,-3.1799 10.70762,-0.9396 9.33765,3.4095 7.00963,5.0276 3.08291,10.6707 9.01163,12.047 1.88961,12.1489 -1.94524,9.2923 -25.9774,2.5424 -5.2414,-26.2612 -7.50001,-5.25 -7.50001,3.1875 -2.62501,4.5 -3.65901,6.8882 -0.69063,7.4977 0.87363,10.6353 -0.85494,6.0368 z"
           id="path30-8-1-0-4-7" /><path
           style="opacity:1;fill:#ffffff;fill-opacity:1;stroke-width:39.0001;stroke-linecap:square;paint-order:markers stroke fill"
           d="m -290.82023,2200.681 -25.11778,0.9476 5.90626,34.6875 15.18752,12.9376 12.93752,4.2187 c 0,0 11.34377,1.0313 12.00002,0.8438 0.65625,-0.1875 12.42433,-3.8772 12.42433,-3.8772 l 8.19524,-7.8673 8.27967,-13.7289 3.94237,-15.8174 0.72943,-18.1553 -4.06529,0.04 -23.69324,2.0309 -4.03126,26.7188 -3.1875,5.1563 -5.93763,-0.951 -5.52609,2.4162 -3.06755,-6.1528 z"
           id="path29-7-9-3-5-6" /><path
           style="fill:#000000"
           d="m -286.23278,2257.9349 c -14.9815,-1.8555 -25.39115,-10.6349 -30.72447,-25.9129 -3.86127,-11.0612 -5.17,-27.2197 -3.4304,-42.3547 1.31181,-11.4132 4.57047,-20.4848 9.96451,-27.7398 1.7625,-2.3705 8.78997,-9.5325 11.02463,-11.2356 7.19803,-5.4859 16.00679,-7.9192 26.20717,-7.2394 6.48753,0.4323 12.37232,2.2348 17.50719,5.3623 6.61867,4.0314 12.03803,11.1063 15.22134,19.8713 1.76655,4.864 3.0316,10.5711 3.7388,16.8669 0.53897,4.7981 0.53985,19.6725 0.001,24.6857 -1.31772,12.2701 -4.83652,22.4217 -10.23239,29.5201 -3.26159,4.2907 -9.22048,10.0334 -12.84351,12.3776 -4.1179,2.6644 -8.77266,4.4737 -13.98859,5.4373 -1.79396,0.3315 -10.6183,0.5876 -12.44574,0.3612 z m 16.45717,-9.7346 c 9.53982,-1.4835 17.04852,-6.6199 22.04445,-15.0796 3.47833,-5.8899 5.48196,-12.6913 6.89239,-23.3962 0.49474,-3.755 0.61207,-17.0561 0.18957,-21.4899 -0.63441,-6.6576 -1.44779,-10.9772 -3.00751,-15.9718 -4.21151,-13.4865 -12.99965,-21.9187 -25.09032,-24.0743 -5.02442,-0.8957 -12.72287,-0.7005 -17.16384,0.4353 -6.03213,1.5428 -11.70278,5.1512 -15.52296,9.8777 -4.50325,5.5717 -7.19044,11.8356 -9.06644,21.1341 -1.21921,6.0431 -1.81274,18.3902 -1.2517,26.039 0.78839,10.7483 2.78194,18.9862 6.18227,25.547 2.50463,4.8326 6.25408,9.2863 10.02623,11.9095 3.62413,2.5203 8.57066,4.4741 13.01356,5.1401 3.03599,0.4551 9.60659,0.4186 12.7543,-0.071 z m -8.32409,-16.2741 c -3.31671,-0.5041 -5.64807,-1.8438 -7.79204,-4.4774 -3.07679,-3.7795 -4.98248,-10.1255 -5.69324,-18.9586 -0.27252,-3.3867 -0.26592,-17.7693 0.01,-21.0082 0.58425,-6.8674 1.74995,-11.7578 3.72065,-15.609 1.87984,-3.6737 4.12687,-5.8113 7.38193,-7.0226 1.56818,-0.5836 1.99265,-0.6529 4.1143,-0.6712 2.08878,-0.018 2.56299,0.047 4.05099,0.5581 4.60054,1.5797 7.48548,4.9356 9.49436,11.0442 1.35179,4.1106 1.93209,8.2941 2.30494,16.617 0.25378,5.6648 0.0221,14.0163 -0.52912,19.0745 -1.1128,10.2114 -4.48538,16.9667 -9.66402,19.3573 -2.16135,0.9977 -5.14074,1.439 -7.39838,1.0959 z m 4.64326,-4.4257 c 1.15477,-0.5823 2.52675,-5.2065 3.31459,-11.1715 0.40911,-3.0975 0.45142,-4.3173 0.4539,-13.0845 0.002,-8.7862 -0.0387,-9.9878 -0.45117,-13.1658 -0.5501,-4.2383 -1.02288,-6.2592 -2.1221,-9.0706 -1.74546,-4.4643 -3.99121,-6.6537 -7.49155,-7.3034 -1.27046,-0.2358 -3.58894,-0.1108 -4.22135,0.2277 -0.76864,0.4113 -2.35944,5.4661 -2.84789,9.0492 -0.70159,5.1465 -0.74779,6.0868 -0.74291,15.12 0.004,7.4063 0.0756,9.866 0.35838,12.3026 0.88713,7.6454 2.53249,12.4444 5.16402,15.0619 1.42092,1.4134 2.59529,2.0583 4.2465,2.3319 1.36643,0.2265 3.60478,0.073 4.33958,-0.2975 z"
           id="path28-4-8-6-0-97" /></g></g></g></svg>
